<svg width="641" height="282" viewBox="0 0 641 282" fill="none" xmlns="http://www.w3.org/2000/svg">
<path d="M401.29 31.47H401.79H423.37L423.54 96.85C423.61 100.31 423.79 108.94 432.97 111.02C438.53 112.28 445.57 109.04 448.58 106.91L448.49 31.47H454.17H470.02C470.02 50.96 470.12 83.42 470.03 101.43C469.97 113.24 470.59 116.61 470.59 116.61H461.2C458.58 116.61 455.99 116.61 453.28 116.61C451.93 116.61 450.83 116.61 449.4 116.61L448.69 112.39C443.64 115.71 434.22 118.37 421.71 117.24C415.32 116.37 409.96 112.9 409.96 112.9C407.69 111.09 402.5 106.05 401.88 97.5L401.74 56.46L401.59 42.99C401.57 43 401.6 36.87 401.29 31.47ZM607.44 200.49C607.47 198.26 607.47 196.83 607.44 194.2C607.38 189.48 607.4 185.25 606.87 180.56C606.02 173.06 602.82 164.95 594.1 161.46C593.59 161.26 576.78 154.07 558.93 164.4L558.43 160.22C556.84 160.57 536.4 161.75 536.4 161.75C536.4 161.75 537.05 165.71 537.75 179.78C537.83 182.57 537.87 185.71 537.87 189.26L537.95 189.16C537.95 199.09 537.95 210.24 537.95 221.16C537.94 221.59 537.91 221.97 537.91 222.45C537.89 225.11 537.84 227.53 537.78 229.72C537.33 240.04 536.91 245.21 536.91 245.21H540.36V245.17H559.13L559.04 176.59L559.03 170.52C562.32 168.11 569.25 166.62 575.11 167.98C584.33 170.13 585.68 179.93 585.75 183.52L585.92 245.18H607.65C607.65 245.18 607.41 242.01 607.43 240.22V200.49H607.44ZM182.96 46.83C194.26 65.32 186.96 91.41 187.05 91.13C187.05 91.13 184.19 106.71 166.52 115.12C152.01 120.29 135.42 114.21 135.73 114.46L135.01 117.44L134.47 117.48L114.74 117.5V92.36H114.75C114.75 75.52 114.75 61.98 114.74 47.54L114.63 19.06C114.63 19.06 114.95 6.99 113.66 4.94L136.02 0L136.31 0.25V34.54C144.01 31.54 152.28 31.63 152.28 31.63C173.46 31.25 182.96 46.83 182.96 46.83ZM152.68 39.28C147.96 38.01 142.22 38.61 136.45 41.86V98.1L136.35 107.81C138.76 109.2 142.35 109.87 145.75 109.91C164.14 109.97 166.23 87.21 166.44 84.41C166.4 84.65 171.35 45 152.68 39.28ZM366.29 98.88C366.29 106.54 365.96 111.3 364.87 116.98H388.29C387.09 111.2 387.29 104.72 387.29 104.72V0.969997L386.88 0.619999L365.3 5.43C366.6 7.45 366.28 25.05 366.28 25.05C366.28 25.05 366.29 89.33 366.29 98.88ZM259.25 233.11V129.63L258.84 129.28L237.26 134.09C238.56 136.11 238.24 153.71 238.24 153.71C238.24 153.71 238.24 217.72 238.24 227.27C238.24 234.93 237.91 239.69 236.82 245.37H260.24C259.05 239.58 259.25 233.11 259.25 233.11ZM222.06 233.11V129.63L221.65 129.28L200.07 134.09C201.37 136.11 201.05 153.71 201.05 153.71C201.05 153.71 201.05 217.72 201.05 227.27C201.05 234.93 200.72 239.69 199.63 245.37H223.05C221.86 239.58 222.06 233.11 222.06 233.11ZM607.58 70.97L607.8 76.73H548.36C548.27 80.4 548.73 85.14 549.38 88.19C552.8 104.08 564.35 108.06 564.35 108.06C573.33 111.45 579.68 109.43 585.84 106.52C588.78 104.92 592.5 102.54 597.12 99C599.14 97.35 600.68 95.69 600.68 95.69L601.77 102.22C597.03 108.49 588.4 115.56 574.89 117.24C551.95 120.09 538.26 106.05 538.26 106.05C530.8 98.72 526.4 87.2 526.4 75.81C526.4 63.32 529.72 52.26 536.26 44.65C543 36.81 552.58 31.83 565.22 31.12C577.16 30.46 586.77 33.97 594.27 41.03C601.44 47.78 606.64 57.01 607.58 70.97ZM584.85 70.54C584.85 68.2 584.54 49.72 576.02 40.6C573.24 37.62 569.86 36.2 565.95 36.62C559.57 36.79 555.36 43.77 555.36 43.77C554.06 45.75 552.68 48.41 551.5 51.94C548.98 59.84 548.62 69.08 548.6 70.63L584.85 70.54ZM466.69 204.85C466.6 208.52 467.06 213.26 467.71 216.31C471.13 232.2 482.68 236.18 482.68 236.18C491.66 239.57 498.01 237.55 504.17 234.64C507.11 233.04 510.83 230.66 515.45 227.12C517.47 225.47 519.01 223.81 519.01 223.81L520.1 230.34C515.36 236.61 506.73 243.68 493.22 245.36C470.28 248.21 456.59 234.17 456.59 234.17C449.13 226.84 444.73 215.32 444.73 203.93C444.73 191.44 448.05 180.38 454.59 172.77C461.33 164.93 470.91 159.95 483.55 159.24C495.49 158.58 505.1 162.09 512.6 169.15C519.78 175.91 524.97 185.14 525.91 199.1L526.13 204.86H466.69V204.85ZM466.92 198.75L503.19 198.66C503.19 196.32 502.88 177.84 494.36 168.72C491.58 165.74 488.2 164.32 484.29 164.74C477.91 164.91 473.7 171.89 473.7 171.89C472.39 173.87 471.02 176.53 469.84 180.06C467.3 187.96 466.94 197.2 466.92 198.75ZM486.54 37.22V90.84C486.54 91.2 486.55 91.54 486.55 91.91C486.57 95.33 486.9 98.77 487.42 102.15C488.53 109.37 493.5 115.17 499.96 116.75C499.96 116.75 510.57 119.5 519.45 115.4L519.44 115.41C519.44 115.41 523.23 113.3 525.48 111.29L525 110.49C521.81 112.03 517.41 110.88 517.41 110.88C514.68 110.19 511.28 108.02 509.41 103.31C507.59 98.12 507.68 87.27 507.68 87.27L507.64 37.38L527.08 37.32L528.75 30.93L507.65 31.01L507.66 8.67L504.63 9.3C502.28 13.28 497.12 28.34 480.71 31.95V32.55V36.78V37.14H486.55V37.22H486.54ZM33.22 117.49L33.4 117.12C24.55 112.4 21.7 104 20.89 97.75C20.74 96.08 20.57 91.36 22.67 85.51L45.74 33.66L45.84 33.42L45.94 33.66L69.01 85.51C71.08 91.29 70.94 95.97 70.79 97.69C69.99 103.96 67.15 112.4 58.25 117.13L58.42 117.49H82.41H106.47H107.59L107.76 117.14C104.92 114.31 102.31 109.14 102.31 109.14L54.38 4.61L54.04 4.76L5.91 109.13C5.91 109.13 3.51 113.94 0 117.15L0.16 117.48H31.99H33.22V117.49ZM434.35 163.14C434.35 163.14 433.7 172.42 433.58 181.65L434.04 235.64L433.84 242.37C433.84 250.83 432.69 281.48 394.83 281.48C380.24 281.48 365.95 272.72 366.64 260.01C367.88 249.45 376.52 245.03 376.52 245.03C378.48 243.93 381.37 242.64 385.01 241.92C363.74 241.23 357.77 221.08 357.77 221.08C353.79 204.62 356.87 192.7 356.87 192.7C361.05 175.41 371.54 167.83 377.85 165.13C378.45 164.81 396.67 154.08 433.42 162.93L434.35 163.14ZM411.97 250.25L411.78 233.61C410.81 235.46 404.57 241.05 395.84 246.2C395.84 246.2 388.51 250.39 385.11 255.41C382.95 258.57 382.79 262.21 383.04 264.42C383.4 266.91 384.53 268.94 386.24 270.85C391.76 277 399.57 274.69 399.74 274.64C411.86 271.44 412.11 251.35 411.97 250.25ZM412.12 197.92L411.52 167.01C399.53 164.61 390.09 171.72 386.84 175.35C381.82 181.86 378.62 186.05 378.22 207.12C377.73 233.2 395.34 234.94 395.34 234.94C409.11 237.54 410.83 217.57 411.08 216.15C411.08 216.15 412.12 207.88 412.12 197.92ZM344.72 237.16L346.06 245.37H325.98L323.84 241.92C320.09 244.19 313.53 244.88 313.53 244.88C313.53 244.88 288.65 249.38 277.16 236.93C266.35 225.23 271.1 209.21 271.1 209.21C274.59 196.61 287.91 191.39 287.91 191.39C300.01 184.47 316.94 182.55 323.6 182.12C323.53 177.45 323.46 167.81 311.1 165.92C292.88 163.14 276.9 184.85 276.9 184.85L275.71 184.2L277.32 167.06C282.63 163.94 295.82 157.58 316.48 159.33C341.78 161.48 344.65 180.07 344.77 181.88C345.18 188.14 344.72 191.42 344.72 191.42V237.16ZM323.5 188.68C320.56 188.87 313.25 189.75 304.75 193.76C292.33 199.61 290.76 210.54 290.87 216.04C291.22 233.86 304.95 236.97 313.93 237.15C319.14 237.25 321.82 236.64 323.37 236.1L323.49 235.36V188.68H323.5ZM252.76 73.31C249.51 71.36 241.83 67.38 241.83 67.38C238.1 65.75 234.81 64.06 231.18 62.29C227.21 60.35 224.25 58.84 221.87 56.86C220.37 55.46 215.96 51.61 219.04 44.33C222.81 36.51 232.78 37.16 232.78 37.16C236.94 37.27 248.95 37.34 258.54 55.21L258.76 55.15L258.82 54.92L263.25 38.25L263.39 37.74L262.76 37.42C262.6 37.33 262.4 37.23 262.14 37.1C260.58 36.33 254.12 33.88 243.01 32.25C230.24 30.38 219.71 32.94 218.56 33.28C195.55 39.24 198 58.97 197.91 58.25C198.62 70.54 208.05 75.27 213.93 78.5C219.83 81.75 234.4 87.82 241.31 94.85C241.31 94.85 245.92 98.1 242.81 106.03C242.81 106.03 240.71 111.17 233.62 112.03C228.18 112.69 224.35 112.17 221.45 111.24C208.76 107.87 201.12 97.36 198.14 92.87L197.98 92.93L195.33 112L199.55 113.38C205.11 115 217.38 117.91 230.24 117.64C233.26 117.58 236.33 117.24 239.38 116.78C250.53 115.08 255.61 110.42 259.02 106.81C263.25 101.71 264.54 95.73 264.54 95.73C265.91 86.43 262.02 78.88 252.76 73.31ZM188.68 205.89C188.04 218.86 183.11 229.73 174.2 236.62C172.44 238.17 169.9 239.85 169.9 239.85C143.19 252.66 122.94 239.46 122.94 239.46C120.84 238.25 119.13 236.63 119.13 236.63C110.21 229.74 105.19 218.76 104.55 205.79C103.83 191.21 107.29 178.46 117.83 169C124.39 163.11 132.08 160.47 140.33 159.47C146.63 158.71 152.84 159.41 152.84 159.41C161.11 160.26 169.05 163.33 175.61 169.22C186.14 178.69 189.4 191.31 188.68 205.89ZM165.53 198.61C165.53 179.6 159.51 167.64 149.32 165.05V165.06C149.32 165.06 146.86 164.44 144.31 164.93C133.86 166.93 127.55 179.67 127.55 198.52V203.75C127.55 227.96 134.49 237.75 143.49 240.32C144.34 240.54 146.95 240.99 149.84 240.14V240.15C158.72 237.37 165.53 228.45 165.53 203.86V198.61ZM271.86 77.72C271.14 63.14 274.6 50.39 285.14 40.93C291.7 35.04 299.39 32.4 307.64 31.4C313.94 30.64 320.15 31.34 320.15 31.34C328.42 32.19 336.36 35.26 342.92 41.15C353.46 50.61 356.71 63.23 355.99 77.82C355.35 90.79 350.42 101.66 341.51 108.55C339.75 110.1 337.21 111.78 337.21 111.78C310.5 124.59 290.25 111.39 290.25 111.39C288.15 110.18 286.44 108.56 286.44 108.56C277.53 101.67 272.5 90.69 271.86 77.72ZM294.87 75.67C294.87 99.88 301.81 109.67 310.81 112.24C311.66 112.46 314.27 112.91 317.16 112.06V112.07C326.04 109.29 332.85 100.37 332.85 75.78V70.55C332.85 51.54 326.83 39.58 316.64 36.99V37C316.64 37 314.18 36.38 311.63 36.87C301.18 38.87 294.87 51.61 294.87 70.46V75.67ZM73.48 232L73.46 231.96C65.79 232.32 49.18 231.2 38.24 219.95C21.25 202.47 24.82 178.45 25.15 172.86C26 167.05 27.32 162.14 28.95 157.97C30.81 153.67 40.7 136.07 57.09 134.83H57.12C83.58 132.28 90.26 157.7 91.05 161.93L91.72 162.08L107.16 130.11L106.89 129.8H56.83C52.15 130.02 49.72 130.31 49.72 130.31C22.47 133.73 10.7 152.55 10.7 152.55C9.06 155 7.6 157.58 6.32 160.29C-0.78 175.46 -1.05 190.83 2.91 206.19C6.09 218.5 13.31 227.21 23.89 235.49C32.79 242.45 45.65 245.65 57.62 245.65C67.47 245.65 75.84 243.67 83.27 239.57C91.08 235.44 98.11 228.13 101.75 223.5L100.97 221.14C89.8 230.86 73.48 232 73.48 232ZM42.01 84.07L45.57 98.58L49.13 84.07L63.64 80.51L49.13 76.95L45.57 62.44L42.01 76.95L27.5 80.51L42.01 84.07Z" fill="url(#paint0_linear_1359_133)"/>
<path d="M637.75 31.33L632.65 38.45L627.64 31.46L627.55 31.33H625.2V46.38H627.69V37.94C627.69 37.16 627.68 36.41 627.67 35.74C628.15 36.44 628.63 37.13 629.12 37.81L632.6 42.67L636.08 37.81C636.57 37.13 637.05 36.43 637.53 35.74C637.52 36.41 637.51 37.16 637.51 37.94V46.38H640.08V31.33H637.75ZM609.31 33.64H614.28V46.37H616.83V33.64H621.81V31.33H609.31V33.64Z" fill="#9B593E"/>
<defs>
<linearGradient id="paint0_linear_1359_133" x1="67.2028" y1="190.676" x2="522.673" y2="77.115" gradientUnits="userSpaceOnUse">
<stop offset="0.0204" stop-color="#9B593E"/>
<stop offset="0.0941" stop-color="#A7623F"/>
<stop offset="0.1912" stop-color="#B26A40"/>
<stop offset="0.1984" stop-color="#B97043"/>
<stop offset="0.2284" stop-color="#D2854E"/>
<stop offset="0.2598" stop-color="#E49456"/>
<stop offset="0.293" stop-color="#EF9D5A"/>
<stop offset="0.3313" stop-color="#F2A05C"/>
<stop offset="0.3893" stop-color="#F2A05C"/>
<stop offset="0.4333" stop-color="#E19154"/>
<stop offset="0.5205" stop-color="#B46B41"/>
<stop offset="0.5237" stop-color="#B26A40"/>
<stop offset="0.6126" stop-color="#9B593E"/>
<stop offset="0.6695" stop-color="#A7623F"/>
<stop offset="0.7108" stop-color="#B26A40"/>
<stop offset="0.7141" stop-color="#B56C41"/>
<stop offset="0.7503" stop-color="#D48249"/>
<stop offset="0.7707" stop-color="#DF8A4C"/>
<stop offset="0.8385" stop-color="#DF8A4C"/>
<stop offset="0.8468" stop-color="#D58349"/>
<stop offset="0.8676" stop-color="#C27544"/>
<stop offset="0.8888" stop-color="#B66D41"/>
<stop offset="0.9106" stop-color="#B26A40"/>
<stop offset="0.9755" stop-color="#A25E3F"/>
<stop offset="1" stop-color="#9B593E"/>
</linearGradient>
</defs>
</svg>
